<svg width="31" height="31" viewBox="0 0 31 31" fill="none" xmlns="http://www.w3.org/2000/svg">
<path fill-rule="evenodd" clip-rule="evenodd" d="M15.5 0.000411408C12.8643 0.000411408 10.6856 0.232548 9.00874 0.515149L8.81553 0.548311C7.35926 0.791982 6.14809 0.995282 5.20079 2.16029C4.59521 2.90861 4.39767 3.71748 4.35298 4.61863L3.64358 4.85509C2.976 5.07713 2.38916 5.27323 1.92633 5.4895C1.42456 5.72308 0.964605 6.02298 0.612791 6.51177C0.260977 7.00055 0.121116 7.53115 0.0576744 8.08049C-5.37135e-08 8.58946 0 9.20513 0 9.91019V10.1193C0 10.6989 -4.02851e-08 11.2107 0.0432558 11.639C0.0893953 12.1018 0.191767 12.5531 0.446977 12.9885C0.70507 13.4254 1.04823 13.7339 1.43177 13.9992C1.78502 14.2444 2.232 14.4938 2.73953 14.775L6.54605 16.8901C7.32465 18.4199 8.39307 19.7839 9.86233 20.7687C11.1413 21.628 12.6768 22.1673 14.495 22.31C14.4461 22.4376 14.4202 22.5728 14.4186 22.7094V25.2326H12.3567C11.7734 25.2327 11.2081 25.4348 10.757 25.8047C10.3059 26.1745 9.99685 26.6893 9.88251 27.2613L9.56674 28.8372H6.84884C6.56203 28.8372 6.28698 28.9512 6.08418 29.154C5.88137 29.3568 5.76744 29.6318 5.76744 29.9186C5.76744 30.2054 5.88137 30.4805 6.08418 30.6833C6.28698 30.8861 6.56203 31 6.84884 31H24.1512C24.438 31 24.713 30.8861 24.9158 30.6833C25.1186 30.4805 25.2326 30.2054 25.2326 29.9186C25.2326 29.6318 25.1186 29.3568 24.9158 29.154C24.713 28.9512 24.438 28.8372 24.1512 28.8372H21.4333L21.1175 27.2613C21.0032 26.6893 20.6941 26.1745 20.243 25.8047C19.7919 25.4348 19.2266 25.2327 18.6433 25.2326H16.5814V22.7094C16.5798 22.5728 16.5539 22.4376 16.505 22.31C18.3232 22.1658 19.8587 21.628 21.1377 20.7701C22.6084 19.7839 23.6753 18.4199 24.454 16.8901L28.2605 14.775C28.768 14.4938 29.215 14.2444 29.5682 13.9992C29.9503 13.7339 30.2949 13.4254 30.5516 12.99C30.8082 12.5531 30.912 12.1018 30.9567 11.639C31 11.2107 31 10.6989 31 10.1193V9.91019C31 9.20657 31 8.58946 30.9423 8.08049C30.8789 7.53115 30.7405 6.99911 30.3872 6.51177C30.0354 6.02298 29.5754 5.72308 29.0751 5.48806C28.6094 5.27178 28.024 5.07713 27.3564 4.85509L26.647 4.61863C26.6038 3.71604 26.4062 2.90861 25.7992 2.16029C24.8533 0.99384 23.6422 0.79054 22.1859 0.548311L21.9913 0.515149C19.8457 0.162596 17.6743 -0.00958476 15.5 0.000411408ZM19.2272 28.8372L18.9965 27.6852C18.9802 27.6035 18.9361 27.53 18.8717 27.4772C18.8073 27.4243 18.7266 27.3954 18.6433 27.3954H12.3567C12.2734 27.3954 12.1927 27.4243 12.1283 27.4772C12.0639 27.53 12.0198 27.6035 12.0035 27.6852L11.7728 28.8372H19.2272ZM4.38037 6.88953L4.40056 6.88232C4.50437 9.07392 4.75093 11.4962 5.36805 13.7599L3.83102 12.9078C3.27014 12.5949 2.91833 12.3988 2.66456 12.2229C2.43098 12.06 2.35456 11.9634 2.31274 11.8913C2.26949 11.8192 2.22335 11.7067 2.19451 11.4241C2.16471 10.974 2.15412 10.5227 2.16279 10.0717V9.96642C2.16279 9.18927 2.16423 8.6976 2.20605 8.3256C2.24642 7.98244 2.30986 7.85412 2.36753 7.77626C2.42377 7.69696 2.5247 7.59603 2.83758 7.4504C3.17786 7.2918 3.64502 7.13608 4.38037 6.88953ZM26.5994 6.88088C26.4971 9.07248 26.2491 11.4948 25.6334 13.7585L27.169 12.9063C27.7299 12.5935 28.0817 12.3974 28.3354 12.2215C28.569 12.0585 28.6454 11.9619 28.6873 11.8898C28.7305 11.8177 28.7767 11.7053 28.8055 11.4227C28.8358 11.1141 28.8372 10.7119 28.8372 10.0702V9.96498C28.8372 9.18782 28.8358 8.69616 28.794 8.32416C28.7536 7.981 28.6901 7.85268 28.6325 7.77482C28.5762 7.69552 28.4753 7.59459 28.1624 7.44896C27.8221 7.29036 27.355 7.1332 26.6196 6.88664L26.5994 6.88088ZM9.36921 2.64763C11.3958 2.31589 13.4465 2.15384 15.5 2.16317C18.0088 2.16317 20.0664 2.38377 21.6308 2.64763C23.3711 2.94177 23.7359 3.05135 24.1209 3.52427C24.4987 3.98854 24.5347 4.42975 24.4568 6.38344C24.3271 9.63912 23.8974 13.1543 22.568 15.8275C21.9105 17.1453 21.0512 18.2238 19.9337 18.9736C18.822 19.719 17.3874 20.1862 15.5 20.1862C13.6126 20.1862 12.1794 19.719 11.0677 18.9736C9.94884 18.2238 9.08949 17.1453 8.43344 15.8261C7.1026 13.1543 6.67437 9.64056 6.5446 6.382C6.46674 4.42975 6.50135 3.98854 6.88056 3.52427C7.26409 3.05135 7.62888 2.94177 9.36921 2.64763Z" fill="white"/>
</svg>
